PathFileType	3	(X/Y/Z)	D:\Students\303\Renee\Session 1\Renee Cal 01.trc
DataRate	CameraRate	NumFrames	NumMarkers	Units	OrigDataRate	OrigDataStartFrame	OrigNumFrames
100.0	100.0	7	27	mm	100.0	375	599	
Frame#	Time	RASIS			LASIS			RPSIS			LPSIS			RKneeLateral			RKneeMedial			LKneeLateral			LKneeMedial			RAnkleLateral			RAnkleMedial			RShank			RFibula			LAnkleLateral			LAnkleMedial			LShank			LFibula			RMT2			RHeel			RMT5			RToe			LMT2			LHeel			LMT5			LToe			Sternum			LShoulder			RShoulder			
		X1	Y1	Z1	X2	Y2	Z2	X3	Y3	Z3	X4	Y4	Z4	X5	Y5	Z5	X6	Y6	Z6	X7	Y7	Z7	X8	Y8	Z8	X9	Y9	Z9	X10	Y10	Z10	X11	Y11	Z11	X12	Y12	Z12	X13	Y13	Z13	X14	Y14	Z14	X15	Y15	Z15	X16	Y16	Z16	X17	Y17	Z17	X18	Y18	Z18	X19	Y19	Z19	X20	Y20	Z20	X21	Y21	Z21	X22	Y22	Z22	X23	Y23	Z23	X24	Y24	Z24	X25	Y25	Z25	X26	Y26	Z26	X27	Y27	Z27	
375	3.74	-146.03731	886.8631	-494.29807	-420.92181	888.62921	-492.41083	-221.00252	942.93518	-283.09839	-341.09293	946.23279	-279.35101	-114.63057	428.90036	-381.31323				-478.6821	441.59973	-368.03812										-105.65536	313.965	-362.11966	-113.18287	389.38705	-372.26721	-451.97659	56.657368	-360.9007				-475.00076	313.76492	-386.31662	-481.63089	409.42563	-359.88422	-177.10031	23.941353	-515.54541	-189.44766	20.962158	-304.16885	-136.12704	20.362707	-495.3129				-415.98334	21.595568	-523.72821	-402.91486	29.804771	-312.43457	-453.6265	19.307877	-497.27377				-293.93277	1308.5494	-475.20081	-428.15909	1359.2635	-366.68573	-133.34616	1367.8538	-402.44833
376	3.75	-146.0313	886.85724	-494.32193	-420.92108	888.61731	-492.49933	-221.01825	942.94666	-283.14072	-341.11954	946.25415	-279.39542	-114.63144	428.88885	-381.3024				-478.68005	441.5722	-368.0755										-105.65556	313.95917	-362.10864	-113.17909	389.36813	-372.2576	-451.98016	56.653923	-360.90063				-475.00009	313.75058	-386.32944	-481.64572	409.42453	-359.90286	-177.09808	23.93622	-515.5509	-189.45438	20.955626	-304.17502	-136.12019	20.361868	-495.31946				-415.98077	21.586037	-523.72968	-402.90497	29.79878	-312.46121	-453.60895	19.293476	-497.27747				-293.93491	1308.5674	-475.20709	-428.1485	1359.2566	-366.66885	-133.34082	1367.8688	-402.46518
377	3.76	-146.02727	886.79608	-494.32587	-420.88214	888.57971	-492.55301	-221.02554	942.91858	-283.16943	-341.12256	946.24292	-279.44928	-114.62959	428.86337	-381.29953				-478.72714	441.61502	-368.05527										-105.64645	313.93613	-362.11685	-113.18323	389.34451	-372.23688	-451.98294	56.653072	-360.91138				-474.9852	313.72791	-386.33923	-481.64206	409.41907	-359.92484	-177.095	23.923622	-515.55762	-189.45262	20.9676	-304.17648	-136.11928	20.343708	-495.31992				-415.95929	21.556696	-523.74048	-402.8959	29.787865	-312.44809	-453.60422	19.280684	-497.28458				-293.93918	1308.5881	-475.21097	-428.13745	1359.2565	-366.659	-133.34349	1367.8696	-402.48654
378	3.77	-146.01073	886.74573	-494.33148	-420.85712	888.55408	-492.62531	-221.02356	942.90973	-283.19962	-341.12128	946.22729	-279.48447	-114.61771	428.83636	-381.30682				-478.7204	441.57242	-368.1283										-105.63885	313.90808	-362.10742	-113.17181	389.31354	-372.23706	-451.97742	56.639446	-360.91113				-474.96927	313.70847	-386.34882	-481.65176	409.40659	-359.93741	-177.09102	23.901423	-515.55688	-189.46411	20.974985	-304.17838	-136.11119	20.335644	-495.32925				-415.94763	21.539007	-523.73645	-402.8588	29.715649	-312.5253	-453.59814	19.269524	-497.2854				-293.94107	1308.5985	-475.22482	-428.10602	1359.2366	-366.66797	-133.33922	1367.8687	-402.49884
379	3.78	-146.00804	886.69293	-494.36041	-420.83386	888.55237	-492.69391	-221.01376	942.88763	-283.23184	-341.11972	946.21167	-279.52454	-114.61491	428.81668	-381.3038				-478.73273	441.60376	-368.11273										-105.6336	313.89182	-362.12061	-113.18686	389.28683	-372.241	-451.97989	56.636711	-360.91837				-474.98837	313.70474	-386.37158	-481.6521	409.39679	-359.95917	-177.08307	23.882645	-515.57159	-189.45934	20.979704	-304.19742	-136.10994	20.337044	-495.33215				-415.93274	21.526123	-523.75476	-402.8598	29.726107	-312.48087	-453.59052	19.259686	-497.28561				-293.93875	1308.6228	-475.25662	-428.07819	1359.2355	-366.67453	-133.33153	1367.8846	-402.51956
380	3.79	-146.00554	886.67499	-494.39291	-420.80392	888.53168	-492.74741	-221.01674	942.88751	-283.25345	-341.1232	946.21332	-279.56519	-114.61891	428.79401	-381.31104				-478.73624	441.58569	-368.15543										-105.63084	313.86899	-362.14166	-113.19199	389.27515	-372.2627	-451.97855	56.635574	-360.92062				-474.98538	313.70227	-386.37213	-481.67014	409.38705	-359.96042	-177.09258	23.873074	-515.5788	-189.47487	20.98386	-304.20239	-136.11218	20.340111	-495.34177				-415.93021	21.516682	-523.76245	-402.82333	29.706987	-312.5361	-453.59015	19.261024	-497.29141				-293.95108	1308.6432	-475.29364	-428.04816	1359.2471	-366.69562	-133.32764	1367.8894	-402.55597
381	3.8	-146.00046	886.66858	-494.40738	-420.79932	888.5509	-492.79602	-221.02261	942.89319	-283.28568	-341.11472	946.20898	-279.60135	-114.62247	428.7948	-381.3179				-478.74094	441.58667	-368.15558										-105.64716	313.87503	-362.1521	-113.18739	389.28571	-372.26291	-451.96777	56.62743	-360.92065				-475.01224	313.72498	-386.38318	-481.66351	409.39636	-359.98367	-177.1017	23.885149	-515.57208	-189.49052	21.000921	-304.1907	-136.11864	20.358681	-495.33734				-415.92938	21.514084	-523.76086	-402.79794	29.689758	-312.5593	-453.59494	19.269436	-497.28772				-293.94818	1308.689	-475.35205	-428.02554	1359.2783	-366.73508	-133.3266	1367.9006	-402.58438
